<svg xmlns="http://www.w3.org/2000/svg" width="64" height="64" viewBox="0 0 64 64">
  <defs>
    <linearGradient id="bStalk" x1="0" y1="0" x2="0" y2="1">
      <stop offset="0" stop-color="#63c28e"/>
      <stop offset="1" stop-color="#2e7d58"/>
    </linearGradient>
  </defs>
  <g id="badge">
    <circle cx="32" cy="32" r="29" fill="#17171c" fill-opacity="0.9"/>
    <circle cx="32" cy="32" r="28.4" fill="none" stroke="#a8813f" stroke-opacity="0.85" stroke-width="1.6"/>
    <circle cx="32" cy="32" r="25.4" fill="none" stroke="#4fa87c" stroke-opacity="0.22" stroke-width="1"/>
  </g>
  <circle cx="32" cy="32" r="16" fill="#7fd4a8" fill-opacity="0.1"/>
  <rect x="29.2" y="13" width="5.6" height="38" rx="2.8" fill="url(#bStalk)"/>
  <rect x="28.4" y="24.6" width="7.2" height="1.7" rx="0.85" fill="#1f5c41"/>
  <rect x="28.4" y="37.6" width="7.2" height="1.7" rx="0.85" fill="#1f5c41"/>
  <path d="M33 25.5 Q44 18.5 51.5 20 Q44.5 27.5 33.5 27 Z" fill="#6ec99a"/>
  <path d="M31 38.5 Q20 33 13 34.5 Q20 41 30.5 40 Z" fill="#58b884"/>
  <path d="M31.4 13.6 Q28 8.4 24 7.6 Q27.6 12.8 30.2 14.6 Z" fill="#6ec99a"/>
  <circle cx="44.5" cy="33.5" r="1.6" fill="#c7f5dd"/>
  <circle cx="18.5" cy="22.5" r="1.2" fill="#c7f5dd" fill-opacity="0.8"/>
  <circle cx="39.5" cy="11.5" r="1.1" fill="#c7f5dd" fill-opacity="0.7"/>
</svg>
